<?xml version="1.0" encoding="utf-8"?>
<svg xmlns="http://www.w3.org/2000/svg" viewBox="0 0 500 500">
  <path style="stroke: rgb(0, 0, 0); fill: rgb(248, 248, 248);" d="M 31.958 348.979 L 46.064 320.766 C 46.047 320.759 47.854 319.528 49.992 320.984 C 235.683 447.434 428.251 360.852 447.82 321.895 C 455.205 307.194 469.197 361.358 470.39 359.7 L 464.183 365.343 C 312.335 459.691 89.515 409.047 39.857 354.622 L 31.958 348.979 Z"/>
  <g transform="matrix(2.383155, 0, 0, 2.383155, -289.696167, -169.945801)" style="">
    <path style="stroke: rgb(0, 0, 0); fill: rgb(239, 0, 64);" d="M 140.55 205.12 C 173.246 149.661 211.285 96.449 226.104 85.795 C 227.402 84.861 228.115 84.366 228.115 84.366 C 239.087 83.147 310.831 208.184 310.831 208.184 C 310.831 208.184 309.411 207.705 308.189 209.024 C 277.042 242.645 200.771 242.626 141.917 207.581 C 141.117 207.105 140.069 205.936 140.55 205.12 Z"/>
    <path style="fill: rgb(216, 216, 216); stroke: rgb(0, 0, 0);" d="M 256.995 160.248 C 248.803 157.518 250.924 171.394 257.679 169.143 C 260.181 168.308 260.764 166.876 259.503 164.353 C 258.837 163.021 259.381 159.336 257.451 159.336"/>
    <path style="fill: rgb(216, 216, 216); stroke: rgb(0, 0, 0);" d="M 215.943 161.388 C 214.039 161.388 213.999 163.571 213.435 165.266 C 213.326 165.593 212.492 167.06 212.979 167.546 C 213.538 168.106 216.797 170.114 217.768 169.143 C 220.406 166.504 220.814 163.71 217.084 161.845 C 216.557 161.581 216.095 160.476 215.487 160.476"/>
    <path style="stroke: rgb(0, 0, 0); fill: rgb(159, 239, 0);" d="M 124.977 235.493 C 127.445 230.983 129.889 226.459 132.38 221.962 C 132.953 220.928 133.002 218.705 134.168 218.899 C 138.489 219.619 142.108 222.611 146.166 224.26 C 158.45 229.25 168.269 234.918 183.184 238.812 C 211.525 246.212 242.407 248.212 271.005 241.875 C 291.758 237.276 302.132 226.415 318.49 220.686 C 319.92 220.185 320.587 222.922 321.298 224.26 C 323.495 228.396 330.058 233.337 327.17 237.025 C 295.801 277.087 172.547 281.531 124.977 233.195"/>
    <path style="fill: rgb(216, 216, 216); stroke: rgb(0, 0, 0);" d="M 221.873 166.178 C 220.414 166.907 219.129 167.561 218.452 168.915 C 217.611 170.597 220.359 174.077 221.645 172.792 C 223.341 171.096 224.223 169.916 225.294 167.774 C 226.197 165.967 223.469 164.01 223.469 163.213"/>
    <g transform="matrix(0.1, 0, 0, -0.1, 79.254257, 330.714203)" fill="#000000" stroke="none">
      <path d="M 1380 2413 C 1212 2240 859 1714 557 1187 C 453 1004 438 974 446 951 C 464 900 665 784 845 720 C 1058 645 1282 610 1547 610 C 1807 610 2015 646 2198 724 C 2341 784 2500 896 2500 936 C 2500 963 1966 1886 1812 2125 C 1724 2261 1619 2399 1571 2443 C 1537 2473 1522 2480 1488 2480 C 1449 2480 1441 2475 1380 2413 Z M 1562 2383 C 1681 2259 1833 2018 2249 1293 C 2426 984 2466 903 2429 925 C 2424 929 2420 926 2420 920 C 2420 914 2249 791 2107 741 C 1799 633 1388 625 1013 720 C 885 752 780 790 780 804 C 780 809 809 878 844 959 C 880 1039 970 1251 1045 1429 C 1226 1860 1338 2116 1416 2279 C 1451 2353 1480 2415 1480 2419 C 1480 2422 1468 2407 1453 2386 C 1404 2312 1263 2004 993 1375 C 908 1177 835 1011 831 1007 C 821 997 729 1037 650 1085 C 618 1104 590 1120 586 1120 C 573 1120 581 1097 598 1083 C 632 1056 821 984 815 963 C 811 947 753 817 749 814 C 733 805 513 930 495 959 C 492 965 537 1055 596 1158 C 889 1669 1232 2184 1400 2363 C 1478 2447 1497 2449 1562 2383 Z"/>
      <path d="M 1505 2392 C 1518 2383 1580 2304 1580 2297 C 1580 2294 1565 2294 1548 2296 C 1520 2299 1519 2298 1537 2290 C 1570 2276 1634 2190 1697 2072 C 1728 2014 1755 1971 1757 1977 C 1760 1984 1754 2002 1745 2019 C 1737 2036 1725 2062 1720 2077 C 1711 2104 1711 2105 1726 2083 C 1735 2071 1753 2049 1766 2033 C 1779 2018 1797 1989 1807 1970 C 1816 1951 1837 1914 1854 1889 C 1871 1863 1892 1830 1901 1814 C 1955 1721 2052 1553 2060 1540 C 2065 1532 2086 1496 2107 1460 C 2127 1424 2167 1353 2197 1303 C 2226 1252 2247 1204 2244 1196 C 2236 1176 2138 1118 2050 1082 C 1859 1004 1678 974 1461 983 C 1299 990 1275 994 1145 1027 C 1090 1041 910 1094 910 1082 C 910 1071 962 1049 1051 1020 C 1248 958 1528 935 1728 964 C 1887 988 1997 1022 2136 1090 C 2269 1156 2290 1172 2273 1198 C 2268 1207 2187 1346 2095 1505 C 1888 1862 1829 1961 1725 2120 C 1635 2257 1523 2400 1506 2400 C 1499 2400 1498 2397 1505 2392 Z"/>
      <path d="M1501 2247 c-1 -23 8 -52 22 -75 12 -20 28 -48 35 -62 20 -40 113 -163 118 -157 3 3 -17 36 -44 74 -66 91 -114 178 -123 222 l-7 36 -1 -38z"/>
      <path d="M1474 2146 c-6 -17 2 -36 17 -36 12 0 12 37 -1 45 -6 3 -13 -1 -16 -9z"/>
      <path d="M1602 2139 c1 -12 9 -24 16 -27 9 -3 13 3 10 19 -1 12 -9 24 -16 27 -9 3 -13 -3 -10 -19z"/>
      <path d="M1166 1985 c-28 -42 -17 -78 16 -48 18 16 25 73 9 73 -5 0 -16 -11 -25 -25z"/>
      <path d="M1706 1962 c-3 -6 2 -16 11 -22 17 -11 17 -11 0 -6 -12 4 -17 2 -15 -6 6 -18 38 -22 38 -6 0 22 -26 53 -34 40z"/>
      <path d="M1404 1936 c-8 -22 3 -49 19 -43 6 2 12 14 12 27 0 27 -22 39 -31 16z"/>
      <path d="M1562 1923 c2 -14 8 -28 14 -30 17 -6 26 27 13 43 -18 22 -31 16 -27 -13z"/>
      <path d="M1778 1910 c12 -5 27 -21 33 -34 29 -62 -33 -77 -63 -16 -15 29 -18 31 -18 13 0 -46 59 -80 88 -51 29 29 -4 99 -45 97 -14 0 -13 -2 5 -9z"/>
      <path d="M1365 1728 c-33 -18 -45 -40 -45 -83 0 -30 6 -47 23 -63 52 -49 127 -12 127 64 -1 42 -13 64 -47 82 -26 14 -32 14 -58 0z m30 -68 c0 -18 -6 -26 -22 -28 -20 -3 -23 1 -23 28 0 27 3 31 23 28 16 -2 22 -10 22 -28z m45 -38 c0 -4 -5 -14 -10 -22 -9 -13 -11 -13 -19 0 -6 9 -6 19 1 27 10 12 28 9 28 -5z"/>
      <path d="M1755 1728 c-54 -31 -61 -93 -16 -139 16 -16 37 -29 46 -29 29 0 75 55 75 90 0 22 -9 41 -29 61 -32 31 -45 35 -76 17z m30 -77 c-9 -29 -39 -23 -43 8 -2 13 2 27 10 32 19 12 41 -14 33 -40z"/>
      <path d="M997 1672 c-18 -20 -23 -62 -8 -62 14 0 41 41 41 62 0 23 -13 23 -33 0z"/>
      <path d="M1524 1556 c-17 -43 31 -116 75 -116 42 0 62 23 74 85 5 30 5 30 -41 30 -26 0 -59 4 -74 9 -22 6 -29 4 -34 -8z m94 -58 c19 -16 14 -38 -10 -38 -21 0 -58 26 -58 40 0 11 53 9 68 -2z"/>
      <path d="M1822 1514 c-27 -18 -28 -36 -4 -57 23 -21 51 -22 80 -1 26 18 28 37 6 58 -20 20 -53 20 -82 0z m72 -10 c24 -9 19 -33 -9 -40 -33 -8 -75 3 -75 20 0 22 48 34 84 20z"/>
      <path d="M1292 1488 c-31 -31 -1 -68 55 -68 33 0 53 16 53 42 0 33 -81 53 -108 26z m72 -8 c14 -5 26 -14 26 -20 0 -16 -42 -29 -73 -23 -43 8 -34 34 20 52 1 1 13 -3 27 -9z"/>
      <path d="M835 1351 c-14 -28 -12 -61 4 -61 17 0 31 26 31 57 0 41 -15 42 -35 4z"/>
      <path d="M2034 1306 c-10 -25 13 -68 34 -64 25 5 22 48 -5 65 -20 14 -23 14 -29 -1z"/>
      <path d="M1131 1261 c-15 -27 -14 -46 5 -61 12 -11 18 -10 31 3 13 13 15 23 7 44 -12 34 -30 40 -43 14z"/>
      <path d="M1401 1231 c-16 -29 -13 -58 6 -65 36 -14 50 47 18 74 -10 9 -16 6 -24 -9z"/>
      <path d="M1714 1226 c-3 -8 -4 -25 -2 -38 4 -32 42 -32 46 0 6 38 -32 70 -44 38z"/>
      <path d="M654 1201 c22 -24 196 -114 205 -106 8 9 -19 28 -116 80 -88 49 -117 57 -89 26z"/>
      <path d="M 2260 1044 C 1912 837 1410 803 947 956 C 904 970 866 979 862 975 C 846 959 1325 845 1325 845 C 1397 831 1617 828 1718 840 C 1832 853 2081 930 2090 930 C 2098 930 2332 1045 2332 1045 L 2349 1022 C 2358 1009 2378 984 2394 967 L 2422 935 L 2394 985 C 2379 1013 2360 1047 2352 1063 C 2345 1078 2338 1090 2337 1089 C 2336 1089 2301 1069 2260 1044"/>
      <path d=""/>
      <path d=""/>
    </g>
  </g>
</svg>