<?xml version="1.0" standalone="no"?>
<!DOCTYPE svg PUBLIC "-//W3C//DTD SVG 20010904//EN"
 "http://www.w3.org/TR/2001/REC-SVG-20010904/DTD/svg10.dtd">
<svg version="1.0" xmlns="http://www.w3.org/2000/svg"
 width="128.000000pt" height="128.000000pt" viewBox="0 0 128.000000 128.000000"
 preserveAspectRatio="xMidYMid meet">
<g transform="translate(0.000000,128.000000) scale(0.100000,-0.100000)"
fill="#b1b1b1" stroke="none">
<path d="M394 1255 c-4 -8 -4 -22 0 -30 5 -13 48 -15 303 -15 276 0 300 -1
337 -20 23 -11 52 -36 66 -57 l25 -37 5 -460 5 -461 25 0 25 0 3 450 c2 395 1
455 -14 493 -23 61 -60 101 -119 128 -49 23 -56 24 -353 24 -260 0 -303 -2
-308 -15z"/>
<path d="M200 1092 c-70 -35 -70 -34 -70 -532 0 -404 2 -448 18 -480 34 -68
45 -70 432 -70 387 0 398 2 433 70 15 32 17 67 15 360 l-3 325 -25 0 -25 0 -3
-325 c-2 -316 -3 -325 -24 -347 l-21 -23 -347 0 -347 0 -21 23 c-22 23 -22 25
-22 468 l0 446 23 21 c23 21 30 22 290 22 l267 0 0 -47 c0 -108 56 -155 180
-151 75 3 75 3 78 32 5 37 -23 108 -56 148 -14 17 -49 41 -77 54 -49 23 -56
24 -355 24 -270 0 -309 -2 -340 -18z m717 -94 c18 -17 37 -44 42 -60 l10 -28
-46 0 c-66 0 -93 27 -93 91 l0 49 28 -11 c15 -6 41 -24 59 -41z"/>
</g>
</svg>