<svg xmlns="http://www.w3.org/2000/svg" viewBox="0 0 1588 604" width="1588" height="604" role="img" aria-label="Steganography decision tree by file type" font-family="'Segoe Print','Bradley Hand','Comic Sans MS',ui-rounded,sans-serif"><defs><filter id="rough" filterUnits="userSpaceOnUse" x="0" y="0" width="1588" height="604"><feTurbulence type="fractalNoise" baseFrequency="0.013" numOctaves="2" seed="7" result="n"/><feDisplacementMap in="SourceGraphic" in2="n" scale="2.4" xChannelSelector="R" yChannelSelector="G"/></filter></defs><rect x="4" y="4" width="1580" height="596" rx="16" fill="#0d1522" stroke="#9fef0022" stroke-width="1"/><text x="24" y="34" font-family="'Fira Code',ui-monospace,monospace" font-size="17" fill="#9fef00" font-weight="700">Steganography — where to look first</text><text x="1564" y="34" text-anchor="end" font-family="'Fira Code',ui-monospace,monospace" font-size="12" fill="#8a97ab">numbers = try in this order · details below</text><g filter="url(#rough)"><path d="M 794 86 C 794 120, 106 122, 106 150" fill="none" stroke="#8a97ab" stroke-width="1.6" opacity="0.6"/><path d="M 794 86 C 794 120, 278 122, 278 150" fill="none" stroke="#8a97ab" stroke-width="1.6" opacity="0.6"/><path d="M 794 86 C 794 120, 450 122, 450 150" fill="none" stroke="#8a97ab" stroke-width="1.6" opacity="0.6"/><path d="M 794 86 C 794 120, 622 122, 622 150" fill="none" stroke="#8a97ab" stroke-width="1.6" opacity="0.6"/><path d="M 794 86 C 794 120, 794 122, 794 150" fill="none" stroke="#8a97ab" stroke-width="1.6" opacity="0.6"/><path d="M 794 86 C 794 120, 966 122, 966 150" fill="none" stroke="#8a97ab" stroke-width="1.6" opacity="0.6"/><path d="M 794 86 C 794 120, 1138 122, 1138 150" fill="none" stroke="#8a97ab" stroke-width="1.6" opacity="0.6"/><path d="M 794 86 C 794 120, 1310 122, 1310 150" fill="none" stroke="#8a97ab" stroke-width="1.6" opacity="0.6"/><path d="M 794 86 C 794 120, 1482 122, 1482 150" fill="none" stroke="#8a97ab" stroke-width="1.6" opacity="0.6"/><rect x="554" y="20" width="480" height="66" rx="14" fill="#101a2b" stroke="#9fef00" stroke-width="2.4"/><path d="M 106 190 L 106 549" stroke="#9fef00" stroke-width="1.6" opacity="0.5" fill="none"/><rect x="29" y="150" width="154" height="40" rx="12" fill="#9fef00" stroke="#9fef00" stroke-width="1.5"/><rect x="29" y="214" width="154" height="50" rx="11" fill="#16233a" stroke="#9fef00" stroke-width="1.4" opacity="0.98"/><circle cx="44" cy="239" r="10" fill="#9fef00"/><rect x="29" y="276" width="154" height="50" rx="11" fill="#16233a" stroke="#9fef00" stroke-width="1.4" opacity="0.98"/><circle cx="44" cy="301" r="10" fill="#9fef00"/><rect x="29" y="338" width="154" height="50" rx="11" fill="#16233a" stroke="#9fef00" stroke-width="1.4" opacity="0.98"/><circle cx="44" cy="363" r="10" fill="#9fef00"/><rect x="29" y="400" width="154" height="50" rx="11" fill="#16233a" stroke="#9fef00" stroke-width="1.4" opacity="0.98"/><circle cx="44" cy="425" r="10" fill="#9fef00"/><rect x="29" y="462" width="154" height="50" rx="11" fill="#16233a" stroke="#9fef00" stroke-width="1.4" opacity="0.98"/><circle cx="44" cy="487" r="10" fill="#9fef00"/><rect x="29" y="524" width="154" height="50" rx="11" fill="#16233a" stroke="#9fef00" stroke-width="1.4" opacity="0.98"/><circle cx="44" cy="549" r="10" fill="#9fef00"/><path d="M 278 190 L 278 425" stroke="#ffa657" stroke-width="1.6" opacity="0.5" fill="none"/><rect x="201" y="150" width="154" height="40" rx="12" fill="#ffa657" stroke="#ffa657" stroke-width="1.5"/><rect x="201" y="214" width="154" height="50" rx="11" fill="#16233a" stroke="#ffa657" stroke-width="1.4" opacity="0.98"/><circle cx="216" cy="239" r="10" fill="#ffa657"/><rect x="201" y="276" width="154" height="50" rx="11" fill="#16233a" stroke="#ffa657" stroke-width="1.4" opacity="0.98"/><circle cx="216" cy="301" r="10" fill="#ffa657"/><rect x="201" y="338" width="154" height="50" rx="11" fill="#16233a" stroke="#ffa657" stroke-width="1.4" opacity="0.98"/><circle cx="216" cy="363" r="10" fill="#ffa657"/><rect x="201" y="400" width="154" height="50" rx="11" fill="#16233a" stroke="#ffa657" stroke-width="1.4" opacity="0.98"/><circle cx="216" cy="425" r="10" fill="#ffa657"/><path d="M 450 190 L 450 425" stroke="#d2a8ff" stroke-width="1.6" opacity="0.5" fill="none"/><rect x="373" y="150" width="154" height="40" rx="12" fill="#d2a8ff" stroke="#d2a8ff" stroke-width="1.5"/><rect x="373" y="214" width="154" height="50" rx="11" fill="#16233a" stroke="#d2a8ff" stroke-width="1.4" opacity="0.98"/><circle cx="388" cy="239" r="10" fill="#d2a8ff"/><rect x="373" y="276" width="154" height="50" rx="11" fill="#16233a" stroke="#d2a8ff" stroke-width="1.4" opacity="0.98"/><circle cx="388" cy="301" r="10" fill="#d2a8ff"/><rect x="373" y="338" width="154" height="50" rx="11" fill="#16233a" stroke="#d2a8ff" stroke-width="1.4" opacity="0.98"/><circle cx="388" cy="363" r="10" fill="#d2a8ff"/><rect x="373" y="400" width="154" height="50" rx="11" fill="#16233a" stroke="#d2a8ff" stroke-width="1.4" opacity="0.98"/><circle cx="388" cy="425" r="10" fill="#d2a8ff"/><path d="M 622 190 L 622 487" stroke="#79c0ff" stroke-width="1.6" opacity="0.5" fill="none"/><rect x="545" y="150" width="154" height="40" rx="12" fill="#79c0ff" stroke="#79c0ff" stroke-width="1.5"/><rect x="545" y="214" width="154" height="50" rx="11" fill="#16233a" stroke="#79c0ff" stroke-width="1.4" opacity="0.98"/><circle cx="560" cy="239" r="10" fill="#79c0ff"/><rect x="545" y="276" width="154" height="50" rx="11" fill="#16233a" stroke="#79c0ff" stroke-width="1.4" opacity="0.98"/><circle cx="560" cy="301" r="10" fill="#79c0ff"/><rect x="545" y="338" width="154" height="50" rx="11" fill="#16233a" stroke="#79c0ff" stroke-width="1.4" opacity="0.98"/><circle cx="560" cy="363" r="10" fill="#79c0ff"/><rect x="545" y="400" width="154" height="50" rx="11" fill="#16233a" stroke="#79c0ff" stroke-width="1.4" opacity="0.98"/><circle cx="560" cy="425" r="10" fill="#79c0ff"/><rect x="545" y="462" width="154" height="50" rx="11" fill="#16233a" stroke="#79c0ff" stroke-width="1.4" opacity="0.98"/><circle cx="560" cy="487" r="10" fill="#79c0ff"/><path d="M 794 190 L 794 487" stroke="#f778ba" stroke-width="1.6" opacity="0.5" fill="none"/><rect x="717" y="150" width="154" height="40" rx="12" fill="#f778ba" stroke="#f778ba" stroke-width="1.5"/><rect x="717" y="214" width="154" height="50" rx="11" fill="#16233a" stroke="#f778ba" stroke-width="1.4" opacity="0.98"/><circle cx="732" cy="239" r="10" fill="#f778ba"/><rect x="717" y="276" width="154" height="50" rx="11" fill="#16233a" stroke="#f778ba" stroke-width="1.4" opacity="0.98"/><circle cx="732" cy="301" r="10" fill="#f778ba"/><rect x="717" y="338" width="154" height="50" rx="11" fill="#16233a" stroke="#f778ba" stroke-width="1.4" opacity="0.98"/><circle cx="732" cy="363" r="10" fill="#f778ba"/><rect x="717" y="400" width="154" height="50" rx="11" fill="#16233a" stroke="#f778ba" stroke-width="1.4" opacity="0.98"/><circle cx="732" cy="425" r="10" fill="#f778ba"/><rect x="717" y="462" width="154" height="50" rx="11" fill="#16233a" stroke="#f778ba" stroke-width="1.4" opacity="0.98"/><circle cx="732" cy="487" r="10" fill="#f778ba"/><path d="M 966 190 L 966 425" stroke="#56d4bc" stroke-width="1.6" opacity="0.5" fill="none"/><rect x="889" y="150" width="154" height="40" rx="12" fill="#56d4bc" stroke="#56d4bc" stroke-width="1.5"/><rect x="889" y="214" width="154" height="50" rx="11" fill="#16233a" stroke="#56d4bc" stroke-width="1.4" opacity="0.98"/><circle cx="904" cy="239" r="10" fill="#56d4bc"/><rect x="889" y="276" width="154" height="50" rx="11" fill="#16233a" stroke="#56d4bc" stroke-width="1.4" opacity="0.98"/><circle cx="904" cy="301" r="10" fill="#56d4bc"/><rect x="889" y="338" width="154" height="50" rx="11" fill="#16233a" stroke="#56d4bc" stroke-width="1.4" opacity="0.98"/><circle cx="904" cy="363" r="10" fill="#56d4bc"/><rect x="889" y="400" width="154" height="50" rx="11" fill="#16233a" stroke="#56d4bc" stroke-width="1.4" opacity="0.98"/><circle cx="904" cy="425" r="10" fill="#56d4bc"/><path d="M 1138 190 L 1138 487" stroke="#ff7b72" stroke-width="1.6" opacity="0.5" fill="none"/><rect x="1061" y="150" width="154" height="40" rx="12" fill="#ff7b72" stroke="#ff7b72" stroke-width="1.5"/><rect x="1061" y="214" width="154" height="50" rx="11" fill="#16233a" stroke="#ff7b72" stroke-width="1.4" opacity="0.98"/><circle cx="1076" cy="239" r="10" fill="#ff7b72"/><rect x="1061" y="276" width="154" height="50" rx="11" fill="#16233a" stroke="#ff7b72" stroke-width="1.4" opacity="0.98"/><circle cx="1076" cy="301" r="10" fill="#ff7b72"/><rect x="1061" y="338" width="154" height="50" rx="11" fill="#16233a" stroke="#ff7b72" stroke-width="1.4" opacity="0.98"/><circle cx="1076" cy="363" r="10" fill="#ff7b72"/><rect x="1061" y="400" width="154" height="50" rx="11" fill="#16233a" stroke="#ff7b72" stroke-width="1.4" opacity="0.98"/><circle cx="1076" cy="425" r="10" fill="#ff7b72"/><rect x="1061" y="462" width="154" height="50" rx="11" fill="#16233a" stroke="#ff7b72" stroke-width="1.4" opacity="0.98"/><circle cx="1076" cy="487" r="10" fill="#ff7b72"/><path d="M 1310 190 L 1310 425" stroke="#e3b341" stroke-width="1.6" opacity="0.5" fill="none"/><rect x="1233" y="150" width="154" height="40" rx="12" fill="#e3b341" stroke="#e3b341" stroke-width="1.5"/><rect x="1233" y="214" width="154" height="50" rx="11" fill="#16233a" stroke="#e3b341" stroke-width="1.4" opacity="0.98"/><circle cx="1248" cy="239" r="10" fill="#e3b341"/><rect x="1233" y="276" width="154" height="50" rx="11" fill="#16233a" stroke="#e3b341" stroke-width="1.4" opacity="0.98"/><circle cx="1248" cy="301" r="10" fill="#e3b341"/><rect x="1233" y="338" width="154" height="50" rx="11" fill="#16233a" stroke="#e3b341" stroke-width="1.4" opacity="0.98"/><circle cx="1248" cy="363" r="10" fill="#e3b341"/><rect x="1233" y="400" width="154" height="50" rx="11" fill="#16233a" stroke="#e3b341" stroke-width="1.4" opacity="0.98"/><circle cx="1248" cy="425" r="10" fill="#e3b341"/><path d="M 1482 190 L 1482 425" stroke="#8b949e" stroke-width="1.6" opacity="0.5" fill="none"/><rect x="1405" y="150" width="154" height="40" rx="12" fill="#8b949e" stroke="#8b949e" stroke-width="1.5"/><rect x="1405" y="214" width="154" height="50" rx="11" fill="#16233a" stroke="#8b949e" stroke-width="1.4" opacity="0.98"/><circle cx="1420" cy="239" r="10" fill="#8b949e"/><rect x="1405" y="276" width="154" height="50" rx="11" fill="#16233a" stroke="#8b949e" stroke-width="1.4" opacity="0.98"/><circle cx="1420" cy="301" r="10" fill="#8b949e"/><rect x="1405" y="338" width="154" height="50" rx="11" fill="#16233a" stroke="#8b949e" stroke-width="1.4" opacity="0.98"/><circle cx="1420" cy="363" r="10" fill="#8b949e"/><rect x="1405" y="400" width="154" height="50" rx="11" fill="#16233a" stroke="#8b949e" stroke-width="1.4" opacity="0.98"/><circle cx="1420" cy="425" r="10" fill="#8b949e"/></g><text x="794" y="48" text-anchor="middle" font-family="'Fira Code',ui-monospace,monospace" font-size="20" font-weight="700" fill="#9fef00">ANY FILE</text><text x="794" y="70" text-anchor="middle" font-family="'Fira Code',ui-monospace,monospace" font-size="12.5" fill="#d4dbe6">run first:  file · exiftool · strings · binwalk</text><text x="106" y="175" text-anchor="middle" font-size="15" font-weight="700" fill="#0b121f">PNG / BMP</text><text x="44" y="243" text-anchor="middle" font-size="12" font-weight="700" fill="#0b121f">1</text><text x="61" y="235" font-family="'Fira Code',ui-monospace,monospace" font-size="11.5" fill="#d4dbe6" font-weight="600">zsteg -a</text><text x="61" y="251" font-size="11" fill="#8a97ab">LSB text / files</text><text x="44" y="305" text-anchor="middle" font-size="12" font-weight="700" fill="#0b121f">2</text><text x="61" y="297" font-family="'Fira Code',ui-monospace,monospace" font-size="11.5" fill="#d4dbe6" font-weight="600">pngcheck -vtp7f</text><text x="61" y="313" font-size="11" fill="#8a97ab">CRC / IHDR size</text><text x="44" y="367" text-anchor="middle" font-size="12" font-weight="700" fill="#0b121f">3</text><text x="61" y="359" font-family="'Fira Code',ui-monospace,monospace" font-size="11.5" fill="#d4dbe6" font-weight="600">bit planes</text><text x="61" y="375" font-size="11" fill="#8a97ab">all channels + MSB</text><text x="44" y="429" text-anchor="middle" font-size="12" font-weight="700" fill="#0b121f">4</text><text x="61" y="421" font-family="'Fira Code',ui-monospace,monospace" font-size="11.5" fill="#d4dbe6" font-weight="600">data after IEND</text><text x="61" y="437" font-size="11" fill="#8a97ab">carve the trailer</text><text x="44" y="491" text-anchor="middle" font-size="12" font-weight="700" fill="#0b121f">5</text><text x="61" y="483" font-family="'Fira Code',ui-monospace,monospace" font-size="11.5" fill="#d4dbe6" font-weight="600">palette remap</text><text x="61" y="499" font-size="11" fill="#8a97ab">indexed PNG</text><text x="44" y="553" text-anchor="middle" font-size="12" font-weight="700" fill="#0b121f">6</text><text x="61" y="545" font-family="'Fira Code',ui-monospace,monospace" font-size="11.5" fill="#d4dbe6" font-weight="600">OpenStego</text><text x="61" y="561" font-size="11" fill="#8a97ab">randomized LSB</text><text x="278" y="175" text-anchor="middle" font-size="15" font-weight="700" fill="#0b121f">JPEG</text><text x="216" y="243" text-anchor="middle" font-size="12" font-weight="700" fill="#0b121f">1</text><text x="233" y="235" font-family="'Fira Code',ui-monospace,monospace" font-size="11.5" fill="#d4dbe6" font-weight="600">steghide -p &#x27;&#x27;</text><text x="233" y="251" font-size="11" fill="#8a97ab">try empty pass</text><text x="216" y="305" text-anchor="middle" font-size="12" font-weight="700" fill="#0b121f">2</text><text x="233" y="297" font-family="'Fira Code',ui-monospace,monospace" font-size="11.5" fill="#d4dbe6" font-weight="600">stegseek rockyou</text><text x="233" y="313" font-size="11" fill="#8a97ab">crack passphrase</text><text x="216" y="367" text-anchor="middle" font-size="12" font-weight="700" fill="#0b121f">3</text><text x="233" y="359" font-family="'Fira Code',ui-monospace,monospace" font-size="11.5" fill="#d4dbe6" font-weight="600">outguess / jsteg</text><text x="233" y="375" font-size="11" fill="#8a97ab">jphide</text><text x="216" y="429" text-anchor="middle" font-size="12" font-weight="700" fill="#0b121f">4</text><text x="233" y="421" font-family="'Fira Code',ui-monospace,monospace" font-size="11.5" fill="#d4dbe6" font-weight="600">stegdetect</text><text x="233" y="437" font-size="11" fill="#8a97ab">statistical</text><text x="450" y="175" text-anchor="middle" font-size="15" font-weight="700" fill="#0b121f">GIF / APNG</text><text x="388" y="243" text-anchor="middle" font-size="12" font-weight="700" fill="#0b121f">1</text><text x="405" y="235" font-family="'Fira Code',ui-monospace,monospace" font-size="11.5" fill="#d4dbe6" font-weight="600">extract frames</text><text x="405" y="251" font-size="11" fill="#8a97ab">ffmpeg -vsync 0</text><text x="388" y="305" text-anchor="middle" font-size="12" font-weight="700" fill="#0b121f">2</text><text x="405" y="297" font-family="'Fira Code',ui-monospace,monospace" font-size="11.5" fill="#d4dbe6" font-weight="600">frame durations</text><text x="405" y="313" font-size="11" fill="#8a97ab">morse / binary</text><text x="388" y="367" text-anchor="middle" font-size="12" font-weight="700" fill="#0b121f">3</text><text x="405" y="359" font-family="'Fira Code',ui-monospace,monospace" font-size="11.5" fill="#d4dbe6" font-weight="600">diff frames</text><text x="405" y="375" font-size="11" fill="#8a97ab">consecutive</text><text x="388" y="429" text-anchor="middle" font-size="12" font-weight="700" fill="#0b121f">4</text><text x="405" y="430" font-family="'Fira Code',ui-monospace,monospace" font-size="11.5" fill="#d4dbe6" font-weight="600">palette tricks</text><text x="622" y="175" text-anchor="middle" font-size="15" font-weight="700" fill="#0b121f">AUDIO</text><text x="560" y="243" text-anchor="middle" font-size="12" font-weight="700" fill="#0b121f">1</text><text x="577" y="235" font-family="'Fira Code',ui-monospace,monospace" font-size="11.5" fill="#d4dbe6" font-weight="600">spectrogram FIRST</text><text x="577" y="251" font-size="11" fill="#8a97ab">Audacity / sox</text><text x="560" y="305" text-anchor="middle" font-size="12" font-weight="700" fill="#0b121f">2</text><text x="577" y="297" font-family="'Fira Code',ui-monospace,monospace" font-size="11.5" fill="#d4dbe6" font-weight="600">waveform</text><text x="577" y="313" font-size="11" fill="#8a97ab">-&gt; Morse</text><text x="560" y="367" text-anchor="middle" font-size="12" font-weight="700" fill="#0b121f">3</text><text x="577" y="359" font-family="'Fira Code',ui-monospace,monospace" font-size="11.5" fill="#d4dbe6" font-weight="600">WAV LSB</text><text x="577" y="375" font-size="11" fill="#8a97ab">stegolsb wavsteg</text><text x="560" y="429" text-anchor="middle" font-size="12" font-weight="700" fill="#0b121f">4</text><text x="577" y="421" font-family="'Fira Code',ui-monospace,monospace" font-size="11.5" fill="#d4dbe6" font-weight="600">SSTV / DTMF / FSK</text><text x="577" y="437" font-size="11" fill="#8a97ab">QSSTV / minimodem</text><text x="560" y="491" text-anchor="middle" font-size="12" font-weight="700" fill="#0b121f">5</text><text x="577" y="483" font-family="'Fira Code',ui-monospace,monospace" font-size="11.5" fill="#d4dbe6" font-weight="600">steghide</text><text x="577" y="499" font-size="11" fill="#8a97ab">DeepSound</text><text x="794" y="175" text-anchor="middle" font-size="15" font-weight="700" fill="#0b121f">VIDEO</text><text x="732" y="243" text-anchor="middle" font-size="12" font-weight="700" fill="#0b121f">1</text><text x="749" y="235" font-family="'Fira Code',ui-monospace,monospace" font-size="11.5" fill="#d4dbe6" font-weight="600">ffprobe streams</text><text x="749" y="251" font-size="11" fill="#8a97ab">count tracks</text><text x="732" y="305" text-anchor="middle" font-size="12" font-weight="700" fill="#0b121f">2</text><text x="749" y="297" font-family="'Fira Code',ui-monospace,monospace" font-size="11.5" fill="#d4dbe6" font-weight="600">extract frames</text><text x="749" y="313" font-size="11" fill="#8a97ab">ffmpeg -vsync 0</text><text x="732" y="367" text-anchor="middle" font-size="12" font-weight="700" fill="#0b121f">3</text><text x="749" y="359" font-family="'Fira Code',ui-monospace,monospace" font-size="11.5" fill="#d4dbe6" font-weight="600">subtitle / attach</text><text x="749" y="375" font-size="11" fill="#8a97ab">-map 0:s / dump</text><text x="732" y="429" text-anchor="middle" font-size="12" font-weight="700" fill="#0b121f">4</text><text x="749" y="421" font-family="'Fira Code',ui-monospace,monospace" font-size="11.5" fill="#d4dbe6" font-weight="600">audio track</text><text x="749" y="437" font-size="11" fill="#8a97ab">-&gt; spectrogram</text><text x="732" y="491" text-anchor="middle" font-size="12" font-weight="700" fill="#0b121f">5</text><text x="749" y="483" font-family="'Fira Code',ui-monospace,monospace" font-size="11.5" fill="#d4dbe6" font-weight="600">moov / trailing</text><text x="749" y="499" font-size="11" fill="#8a97ab">exiftool · binwalk</text><text x="966" y="175" text-anchor="middle" font-size="15" font-weight="700" fill="#0b121f">TEXT</text><text x="904" y="243" text-anchor="middle" font-size="12" font-weight="700" fill="#0b121f">1</text><text x="921" y="235" font-family="'Fira Code',ui-monospace,monospace" font-size="11.5" fill="#d4dbe6" font-weight="600">cat -A -&gt; stegsnow</text><text x="921" y="251" font-size="11" fill="#8a97ab">whitespace</text><text x="904" y="305" text-anchor="middle" font-size="12" font-weight="700" fill="#0b121f">2</text><text x="921" y="297" font-family="'Fira Code',ui-monospace,monospace" font-size="11.5" fill="#d4dbe6" font-weight="600">zero-width</text><text x="921" y="313" font-size="11" fill="#8a97ab">U+200B / C / D</text><text x="904" y="367" text-anchor="middle" font-size="12" font-weight="700" fill="#0b121f">3</text><text x="921" y="359" font-family="'Fira Code',ui-monospace,monospace" font-size="11.5" fill="#d4dbe6" font-weight="600">homoglyphs</text><text x="921" y="375" font-size="11" fill="#8a97ab">mixed alphabets</text><text x="904" y="429" text-anchor="middle" font-size="12" font-weight="700" fill="#0b121f">4</text><text x="921" y="421" font-family="'Fira Code',ui-monospace,monospace" font-size="11.5" fill="#d4dbe6" font-weight="600">encodings</text><text x="921" y="437" font-size="11" fill="#8a97ab">CyberChef Magic</text><text x="1138" y="175" text-anchor="middle" font-size="15" font-weight="700" fill="#0b121f">ARCHIVE / DOC</text><text x="1076" y="243" text-anchor="middle" font-size="12" font-weight="700" fill="#0b121f">1</text><text x="1093" y="235" font-family="'Fira Code',ui-monospace,monospace" font-size="11.5" fill="#d4dbe6" font-weight="600">unzip / 7z</text><text x="1093" y="251" font-size="11" fill="#8a97ab">appended zip</text><text x="1076" y="305" text-anchor="middle" font-size="12" font-weight="700" fill="#0b121f">2</text><text x="1093" y="297" font-family="'Fira Code',ui-monospace,monospace" font-size="11.5" fill="#d4dbe6" font-weight="600">binwalk -e</text><text x="1093" y="313" font-size="11" fill="#8a97ab">carve embedded</text><text x="1076" y="367" text-anchor="middle" font-size="12" font-weight="700" fill="#0b121f">3</text><text x="1093" y="359" font-family="'Fira Code',ui-monospace,monospace" font-size="11.5" fill="#d4dbe6" font-weight="600">polyglot?</text><text x="1093" y="375" font-size="11" fill="#8a97ab">two magic bytes</text><text x="1076" y="429" text-anchor="middle" font-size="12" font-weight="700" fill="#0b121f">4</text><text x="1093" y="421" font-family="'Fira Code',ui-monospace,monospace" font-size="11.5" fill="#d4dbe6" font-weight="600">pdf / docx / apk</text><text x="1093" y="437" font-size="11" fill="#8a97ab">it&#x27;s a zip</text><text x="1076" y="491" text-anchor="middle" font-size="12" font-weight="700" fill="#0b121f">5</text><text x="1093" y="483" font-family="'Fira Code',ui-monospace,monospace" font-size="11.5" fill="#d4dbe6" font-weight="600">fcrackzip -u -D</text><text x="1093" y="499" font-size="11" fill="#8a97ab">crack zip</text><text x="1310" y="175" text-anchor="middle" font-size="15" font-weight="700" fill="#0b121f">PCAP / NET</text><text x="1248" y="243" text-anchor="middle" font-size="12" font-weight="700" fill="#0b121f">1</text><text x="1265" y="235" font-family="'Fira Code',ui-monospace,monospace" font-size="11.5" fill="#d4dbe6" font-weight="600">tshark -qz io,phs</text><text x="1265" y="251" font-size="11" fill="#8a97ab">what&#x27;s inside</text><text x="1248" y="305" text-anchor="middle" font-size="12" font-weight="700" fill="#0b121f">2</text><text x="1265" y="297" font-family="'Fira Code',ui-monospace,monospace" font-size="11.5" fill="#d4dbe6" font-weight="600">--export-objects</text><text x="1265" y="313" font-size="11" fill="#8a97ab">carve HTTP/SMB</text><text x="1248" y="367" text-anchor="middle" font-size="12" font-weight="700" fill="#0b121f">3</text><text x="1265" y="359" font-family="'Fira Code',ui-monospace,monospace" font-size="11.5" fill="#d4dbe6" font-weight="600">usb.capdata</text><text x="1265" y="375" font-size="11" fill="#8a97ab">keystrokes</text><text x="1248" y="429" text-anchor="middle" font-size="12" font-weight="700" fill="#0b121f">4</text><text x="1265" y="421" font-family="'Fira Code',ui-monospace,monospace" font-size="11.5" fill="#d4dbe6" font-weight="600">dns.qry.name</text><text x="1265" y="437" font-size="11" fill="#8a97ab">exfil in subdomains</text><text x="1482" y="175" text-anchor="middle" font-size="15" font-weight="700" fill="#0b121f">UNKNOWN / RAW</text><text x="1420" y="243" text-anchor="middle" font-size="12" font-weight="700" fill="#0b121f">1</text><text x="1437" y="235" font-family="'Fira Code',ui-monospace,monospace" font-size="11.5" fill="#d4dbe6" font-weight="600">file / hexed.it</text><text x="1437" y="251" font-size="11" fill="#8a97ab">identify</text><text x="1420" y="305" text-anchor="middle" font-size="12" font-weight="700" fill="#0b121f">2</text><text x="1437" y="297" font-family="'Fira Code',ui-monospace,monospace" font-size="11.5" fill="#d4dbe6" font-weight="600">binvis.io</text><text x="1437" y="313" font-size="11" fill="#8a97ab">visualize bytes</text><text x="1420" y="367" text-anchor="middle" font-size="12" font-weight="700" fill="#0b121f">3</text><text x="1437" y="359" font-family="'Fira Code',ui-monospace,monospace" font-size="11.5" fill="#d4dbe6" font-weight="600">raw import</text><text x="1437" y="375" font-size="11" fill="#8a97ab">GIMP / Audacity</text><text x="1420" y="429" text-anchor="middle" font-size="12" font-weight="700" fill="#0b121f">4</text><text x="1437" y="421" font-family="'Fira Code',ui-monospace,monospace" font-size="11.5" fill="#d4dbe6" font-weight="600">QR / Braille</text><text x="1437" y="437" font-size="11" fill="#8a97ab">decode blob</text></svg>