<svg xmlns="http://www.w3.org/2000/svg" viewBox="0 0 1400 604" width="1400" height="604" role="img" aria-label="Steganography decision tree by file type" font-family="'Segoe Print','Bradley Hand','Comic Sans MS',ui-rounded,sans-serif"><defs><filter id="rough" filterUnits="userSpaceOnUse" x="0" y="0" width="1400" height="604"><feTurbulence type="fractalNoise" baseFrequency="0.013" numOctaves="2" seed="7" result="n"/><feDisplacementMap in="SourceGraphic" in2="n" scale="2.4" xChannelSelector="R" yChannelSelector="G"/></filter></defs><rect x="4" y="4" width="1392" height="596" rx="16" fill="#0d1522" stroke="#9fef0022" stroke-width="1"/><text x="24" y="34" font-family="'Fira Code',ui-monospace,monospace" font-size="17" fill="#9fef00" font-weight="700">Steganography — where to look first</text><text x="1376" y="34" text-anchor="end" font-family="'Fira Code',ui-monospace,monospace" font-size="12" fill="#8a97ab">numbers = try in this order · details below</text><g filter="url(#rough)"><path d="M 700 86 C 700 120, 105 122, 105 150" fill="none" stroke="#8a97ab" stroke-width="1.6" opacity="0.6"/><path d="M 700 86 C 700 120, 275 122, 275 150" fill="none" stroke="#8a97ab" stroke-width="1.6" opacity="0.6"/><path d="M 700 86 C 700 120, 445 122, 445 150" fill="none" stroke="#8a97ab" stroke-width="1.6" opacity="0.6"/><path d="M 700 86 C 700 120, 615 122, 615 150" fill="none" stroke="#8a97ab" stroke-width="1.6" opacity="0.6"/><path d="M 700 86 C 700 120, 785 122, 785 150" fill="none" stroke="#8a97ab" stroke-width="1.6" opacity="0.6"/><path d="M 700 86 C 700 120, 955 122, 955 150" fill="none" stroke="#8a97ab" stroke-width="1.6" opacity="0.6"/><path d="M 700 86 C 700 120, 1125 122, 1125 150" fill="none" stroke="#8a97ab" stroke-width="1.6" opacity="0.6"/><path d="M 700 86 C 700 120, 1295 122, 1295 150" fill="none" stroke="#8a97ab" stroke-width="1.6" opacity="0.6"/><rect x="460" y="20" width="480" height="66" rx="14" fill="#101a2b" stroke="#9fef00" stroke-width="2.4"/><path d="M 105 190 L 105 549" stroke="#9fef00" stroke-width="1.6" opacity="0.5" fill="none"/><rect x="28" y="150" width="154" height="40" rx="12" fill="#9fef00" stroke="#9fef00" stroke-width="1.5"/><rect x="28" y="214" width="154" height="50" rx="11" fill="#16233a" stroke="#9fef00" stroke-width="1.4" opacity="0.98"/><circle cx="43" cy="239" r="10" fill="#9fef00"/><rect x="28" y="276" width="154" height="50" rx="11" fill="#16233a" stroke="#9fef00" stroke-width="1.4" opacity="0.98"/><circle cx="43" cy="301" r="10" fill="#9fef00"/><rect x="28" y="338" width="154" height="50" rx="11" fill="#16233a" stroke="#9fef00" stroke-width="1.4" opacity="0.98"/><circle cx="43" cy="363" r="10" fill="#9fef00"/><rect x="28" y="400" width="154" height="50" rx="11" fill="#16233a" stroke="#9fef00" stroke-width="1.4" opacity="0.98"/><circle cx="43" cy="425" r="10" fill="#9fef00"/><rect x="28" y="462" width="154" height="50" rx="11" fill="#16233a" stroke="#9fef00" stroke-width="1.4" opacity="0.98"/><circle cx="43" cy="487" r="10" fill="#9fef00"/><rect x="28" y="524" width="154" height="50" rx="11" fill="#16233a" stroke="#9fef00" stroke-width="1.4" opacity="0.98"/><circle cx="43" cy="549" r="10" fill="#9fef00"/><path d="M 275 190 L 275 425" stroke="#ffa657" stroke-width="1.6" opacity="0.5" fill="none"/><rect x="198" y="150" width="154" height="40" rx="12" fill="#ffa657" stroke="#ffa657" stroke-width="1.5"/><rect x="198" y="214" width="154" height="50" rx="11" fill="#16233a" stroke="#ffa657" stroke-width="1.4" opacity="0.98"/><circle cx="213" cy="239" r="10" fill="#ffa657"/><rect x="198" y="276" width="154" height="50" rx="11" fill="#16233a" stroke="#ffa657" stroke-width="1.4" opacity="0.98"/><circle cx="213" cy="301" r="10" fill="#ffa657"/><rect x="198" y="338" width="154" height="50" rx="11" fill="#16233a" stroke="#ffa657" stroke-width="1.4" opacity="0.98"/><circle cx="213" cy="363" r="10" fill="#ffa657"/><rect x="198" y="400" width="154" height="50" rx="11" fill="#16233a" stroke="#ffa657" stroke-width="1.4" opacity="0.98"/><circle cx="213" cy="425" r="10" fill="#ffa657"/><path d="M 445 190 L 445 425" stroke="#d2a8ff" stroke-width="1.6" opacity="0.5" fill="none"/><rect x="368" y="150" width="154" height="40" rx="12" fill="#d2a8ff" stroke="#d2a8ff" stroke-width="1.5"/><rect x="368" y="214" width="154" height="50" rx="11" fill="#16233a" stroke="#d2a8ff" stroke-width="1.4" opacity="0.98"/><circle cx="383" cy="239" r="10" fill="#d2a8ff"/><rect x="368" y="276" width="154" height="50" rx="11" fill="#16233a" stroke="#d2a8ff" stroke-width="1.4" opacity="0.98"/><circle cx="383" cy="301" r="10" fill="#d2a8ff"/><rect x="368" y="338" width="154" height="50" rx="11" fill="#16233a" stroke="#d2a8ff" stroke-width="1.4" opacity="0.98"/><circle cx="383" cy="363" r="10" fill="#d2a8ff"/><rect x="368" y="400" width="154" height="50" rx="11" fill="#16233a" stroke="#d2a8ff" stroke-width="1.4" opacity="0.98"/><circle cx="383" cy="425" r="10" fill="#d2a8ff"/><path d="M 615 190 L 615 487" stroke="#79c0ff" stroke-width="1.6" opacity="0.5" fill="none"/><rect x="538" y="150" width="154" height="40" rx="12" fill="#79c0ff" stroke="#79c0ff" stroke-width="1.5"/><rect x="538" y="214" width="154" height="50" rx="11" fill="#16233a" stroke="#79c0ff" stroke-width="1.4" opacity="0.98"/><circle cx="553" cy="239" r="10" fill="#79c0ff"/><rect x="538" y="276" width="154" height="50" rx="11" fill="#16233a" stroke="#79c0ff" stroke-width="1.4" opacity="0.98"/><circle cx="553" cy="301" r="10" fill="#79c0ff"/><rect x="538" y="338" width="154" height="50" rx="11" fill="#16233a" stroke="#79c0ff" stroke-width="1.4" opacity="0.98"/><circle cx="553" cy="363" r="10" fill="#79c0ff"/><rect x="538" y="400" width="154" height="50" rx="11" fill="#16233a" stroke="#79c0ff" stroke-width="1.4" opacity="0.98"/><circle cx="553" cy="425" r="10" fill="#79c0ff"/><rect x="538" y="462" width="154" height="50" rx="11" fill="#16233a" stroke="#79c0ff" stroke-width="1.4" opacity="0.98"/><circle cx="553" cy="487" r="10" fill="#79c0ff"/><path d="M 785 190 L 785 487" stroke="#f778ba" stroke-width="1.6" opacity="0.5" fill="none"/><rect x="708" y="150" width="154" height="40" rx="12" fill="#f778ba" stroke="#f778ba" stroke-width="1.5"/><rect x="708" y="214" width="154" height="50" rx="11" fill="#16233a" stroke="#f778ba" stroke-width="1.4" opacity="0.98"/><circle cx="723" cy="239" r="10" fill="#f778ba"/><rect x="708" y="276" width="154" height="50" rx="11" fill="#16233a" stroke="#f778ba" stroke-width="1.4" opacity="0.98"/><circle cx="723" cy="301" r="10" fill="#f778ba"/><rect x="708" y="338" width="154" height="50" rx="11" fill="#16233a" stroke="#f778ba" stroke-width="1.4" opacity="0.98"/><circle cx="723" cy="363" r="10" fill="#f778ba"/><rect x="708" y="400" width="154" height="50" rx="11" fill="#16233a" stroke="#f778ba" stroke-width="1.4" opacity="0.98"/><circle cx="723" cy="425" r="10" fill="#f778ba"/><rect x="708" y="462" width="154" height="50" rx="11" fill="#16233a" stroke="#f778ba" stroke-width="1.4" opacity="0.98"/><circle cx="723" cy="487" r="10" fill="#f778ba"/><path d="M 955 190 L 955 425" stroke="#56d4bc" stroke-width="1.6" opacity="0.5" fill="none"/><rect x="878" y="150" width="154" height="40" rx="12" fill="#56d4bc" stroke="#56d4bc" stroke-width="1.5"/><rect x="878" y="214" width="154" height="50" rx="11" fill="#16233a" stroke="#56d4bc" stroke-width="1.4" opacity="0.98"/><circle cx="893" cy="239" r="10" fill="#56d4bc"/><rect x="878" y="276" width="154" height="50" rx="11" fill="#16233a" stroke="#56d4bc" stroke-width="1.4" opacity="0.98"/><circle cx="893" cy="301" r="10" fill="#56d4bc"/><rect x="878" y="338" width="154" height="50" rx="11" fill="#16233a" stroke="#56d4bc" stroke-width="1.4" opacity="0.98"/><circle cx="893" cy="363" r="10" fill="#56d4bc"/><rect x="878" y="400" width="154" height="50" rx="11" fill="#16233a" stroke="#56d4bc" stroke-width="1.4" opacity="0.98"/><circle cx="893" cy="425" r="10" fill="#56d4bc"/><path d="M 1125 190 L 1125 487" stroke="#ff7b72" stroke-width="1.6" opacity="0.5" fill="none"/><rect x="1048" y="150" width="154" height="40" rx="12" fill="#ff7b72" stroke="#ff7b72" stroke-width="1.5"/><rect x="1048" y="214" width="154" height="50" rx="11" fill="#16233a" stroke="#ff7b72" stroke-width="1.4" opacity="0.98"/><circle cx="1063" cy="239" r="10" fill="#ff7b72"/><rect x="1048" y="276" width="154" height="50" rx="11" fill="#16233a" stroke="#ff7b72" stroke-width="1.4" opacity="0.98"/><circle cx="1063" cy="301" r="10" fill="#ff7b72"/><rect x="1048" y="338" width="154" height="50" rx="11" fill="#16233a" stroke="#ff7b72" stroke-width="1.4" opacity="0.98"/><circle cx="1063" cy="363" r="10" fill="#ff7b72"/><rect x="1048" y="400" width="154" height="50" rx="11" fill="#16233a" stroke="#ff7b72" stroke-width="1.4" opacity="0.98"/><circle cx="1063" cy="425" r="10" fill="#ff7b72"/><rect x="1048" y="462" width="154" height="50" rx="11" fill="#16233a" stroke="#ff7b72" stroke-width="1.4" opacity="0.98"/><circle cx="1063" cy="487" r="10" fill="#ff7b72"/><path d="M 1295 190 L 1295 425" stroke="#8b949e" stroke-width="1.6" opacity="0.5" fill="none"/><rect x="1218" y="150" width="154" height="40" rx="12" fill="#8b949e" stroke="#8b949e" stroke-width="1.5"/><rect x="1218" y="214" width="154" height="50" rx="11" fill="#16233a" stroke="#8b949e" stroke-width="1.4" opacity="0.98"/><circle cx="1233" cy="239" r="10" fill="#8b949e"/><rect x="1218" y="276" width="154" height="50" rx="11" fill="#16233a" stroke="#8b949e" stroke-width="1.4" opacity="0.98"/><circle cx="1233" cy="301" r="10" fill="#8b949e"/><rect x="1218" y="338" width="154" height="50" rx="11" fill="#16233a" stroke="#8b949e" stroke-width="1.4" opacity="0.98"/><circle cx="1233" cy="363" r="10" fill="#8b949e"/><rect x="1218" y="400" width="154" height="50" rx="11" fill="#16233a" stroke="#8b949e" stroke-width="1.4" opacity="0.98"/><circle cx="1233" cy="425" r="10" fill="#8b949e"/></g><text x="700" y="48" text-anchor="middle" font-family="'Fira Code',ui-monospace,monospace" font-size="20" font-weight="700" fill="#9fef00">ANY FILE</text><text x="700" y="70" text-anchor="middle" font-family="'Fira Code',ui-monospace,monospace" font-size="12.5" fill="#d4dbe6">run first:  file · exiftool · strings · binwalk</text><text x="105" y="175" text-anchor="middle" font-size="15" font-weight="700" fill="#0b121f">PNG / BMP</text><text x="43" y="243" text-anchor="middle" font-size="12" font-weight="700" fill="#0b121f">1</text><text x="60" y="235" font-family="'Fira Code',ui-monospace,monospace" font-size="11.5" fill="#d4dbe6" font-weight="600">zsteg -a</text><text x="60" y="251" font-size="11" fill="#8a97ab">LSB text / files</text><text x="43" y="305" text-anchor="middle" font-size="12" font-weight="700" fill="#0b121f">2</text><text x="60" y="297" font-family="'Fira Code',ui-monospace,monospace" font-size="11.5" fill="#d4dbe6" font-weight="600">pngcheck -vtp7f</text><text x="60" y="313" font-size="11" fill="#8a97ab">CRC / IHDR size</text><text x="43" y="367" text-anchor="middle" font-size="12" font-weight="700" fill="#0b121f">3</text><text x="60" y="359" font-family="'Fira Code',ui-monospace,monospace" font-size="11.5" fill="#d4dbe6" font-weight="600">bit planes</text><text x="60" y="375" font-size="11" fill="#8a97ab">all channels + MSB</text><text x="43" y="429" text-anchor="middle" font-size="12" font-weight="700" fill="#0b121f">4</text><text x="60" y="421" font-family="'Fira Code',ui-monospace,monospace" font-size="11.5" fill="#d4dbe6" font-weight="600">data after IEND</text><text x="60" y="437" font-size="11" fill="#8a97ab">carve the trailer</text><text x="43" y="491" text-anchor="middle" font-size="12" font-weight="700" fill="#0b121f">5</text><text x="60" y="483" font-family="'Fira Code',ui-monospace,monospace" font-size="11.5" fill="#d4dbe6" font-weight="600">palette remap</text><text x="60" y="499" font-size="11" fill="#8a97ab">indexed PNG</text><text x="43" y="553" text-anchor="middle" font-size="12" font-weight="700" fill="#0b121f">6</text><text x="60" y="545" font-family="'Fira Code',ui-monospace,monospace" font-size="11.5" fill="#d4dbe6" font-weight="600">OpenStego</text><text x="60" y="561" font-size="11" fill="#8a97ab">randomized LSB</text><text x="275" y="175" text-anchor="middle" font-size="15" font-weight="700" fill="#0b121f">JPEG</text><text x="213" y="243" text-anchor="middle" font-size="12" font-weight="700" fill="#0b121f">1</text><text x="230" y="235" font-family="'Fira Code',ui-monospace,monospace" font-size="11.5" fill="#d4dbe6" font-weight="600">steghide -p &#x27;&#x27;</text><text x="230" y="251" font-size="11" fill="#8a97ab">try empty pass</text><text x="213" y="305" text-anchor="middle" font-size="12" font-weight="700" fill="#0b121f">2</text><text x="230" y="297" font-family="'Fira Code',ui-monospace,monospace" font-size="11.5" fill="#d4dbe6" font-weight="600">stegseek rockyou</text><text x="230" y="313" font-size="11" fill="#8a97ab">crack passphrase</text><text x="213" y="367" text-anchor="middle" font-size="12" font-weight="700" fill="#0b121f">3</text><text x="230" y="359" font-family="'Fira Code',ui-monospace,monospace" font-size="11.5" fill="#d4dbe6" font-weight="600">outguess / jsteg</text><text x="230" y="375" font-size="11" fill="#8a97ab">jphide</text><text x="213" y="429" text-anchor="middle" font-size="12" font-weight="700" fill="#0b121f">4</text><text x="230" y="421" font-family="'Fira Code',ui-monospace,monospace" font-size="11.5" fill="#d4dbe6" font-weight="600">stegdetect</text><text x="230" y="437" font-size="11" fill="#8a97ab">statistical</text><text x="445" y="175" text-anchor="middle" font-size="15" font-weight="700" fill="#0b121f">GIF / APNG</text><text x="383" y="243" text-anchor="middle" font-size="12" font-weight="700" fill="#0b121f">1</text><text x="400" y="235" font-family="'Fira Code',ui-monospace,monospace" font-size="11.5" fill="#d4dbe6" font-weight="600">extract frames</text><text x="400" y="251" font-size="11" fill="#8a97ab">ffmpeg -vsync 0</text><text x="383" y="305" text-anchor="middle" font-size="12" font-weight="700" fill="#0b121f">2</text><text x="400" y="297" font-family="'Fira Code',ui-monospace,monospace" font-size="11.5" fill="#d4dbe6" font-weight="600">frame durations</text><text x="400" y="313" font-size="11" fill="#8a97ab">morse / binary</text><text x="383" y="367" text-anchor="middle" font-size="12" font-weight="700" fill="#0b121f">3</text><text x="400" y="359" font-family="'Fira Code',ui-monospace,monospace" font-size="11.5" fill="#d4dbe6" font-weight="600">diff frames</text><text x="400" y="375" font-size="11" fill="#8a97ab">consecutive</text><text x="383" y="429" text-anchor="middle" font-size="12" font-weight="700" fill="#0b121f">4</text><text x="400" y="430" font-family="'Fira Code',ui-monospace,monospace" font-size="11.5" fill="#d4dbe6" font-weight="600">palette tricks</text><text x="615" y="175" text-anchor="middle" font-size="15" font-weight="700" fill="#0b121f">AUDIO</text><text x="553" y="243" text-anchor="middle" font-size="12" font-weight="700" fill="#0b121f">1</text><text x="570" y="235" font-family="'Fira Code',ui-monospace,monospace" font-size="11.5" fill="#d4dbe6" font-weight="600">spectrogram FIRST</text><text x="570" y="251" font-size="11" fill="#8a97ab">Audacity / sox</text><text x="553" y="305" text-anchor="middle" font-size="12" font-weight="700" fill="#0b121f">2</text><text x="570" y="297" font-family="'Fira Code',ui-monospace,monospace" font-size="11.5" fill="#d4dbe6" font-weight="600">waveform</text><text x="570" y="313" font-size="11" fill="#8a97ab">-&gt; Morse</text><text x="553" y="367" text-anchor="middle" font-size="12" font-weight="700" fill="#0b121f">3</text><text x="570" y="359" font-family="'Fira Code',ui-monospace,monospace" font-size="11.5" fill="#d4dbe6" font-weight="600">WAV LSB</text><text x="570" y="375" font-size="11" fill="#8a97ab">stegolsb wavsteg</text><text x="553" y="429" text-anchor="middle" font-size="12" font-weight="700" fill="#0b121f">4</text><text x="570" y="421" font-family="'Fira Code',ui-monospace,monospace" font-size="11.5" fill="#d4dbe6" font-weight="600">SSTV / DTMF / FSK</text><text x="570" y="437" font-size="11" fill="#8a97ab">QSSTV / minimodem</text><text x="553" y="491" text-anchor="middle" font-size="12" font-weight="700" fill="#0b121f">5</text><text x="570" y="483" font-family="'Fira Code',ui-monospace,monospace" font-size="11.5" fill="#d4dbe6" font-weight="600">steghide</text><text x="570" y="499" font-size="11" fill="#8a97ab">DeepSound</text><text x="785" y="175" text-anchor="middle" font-size="15" font-weight="700" fill="#0b121f">VIDEO</text><text x="723" y="243" text-anchor="middle" font-size="12" font-weight="700" fill="#0b121f">1</text><text x="740" y="235" font-family="'Fira Code',ui-monospace,monospace" font-size="11.5" fill="#d4dbe6" font-weight="600">ffprobe streams</text><text x="740" y="251" font-size="11" fill="#8a97ab">count tracks</text><text x="723" y="305" text-anchor="middle" font-size="12" font-weight="700" fill="#0b121f">2</text><text x="740" y="297" font-family="'Fira Code',ui-monospace,monospace" font-size="11.5" fill="#d4dbe6" font-weight="600">extract frames</text><text x="740" y="313" font-size="11" fill="#8a97ab">ffmpeg -vsync 0</text><text x="723" y="367" text-anchor="middle" font-size="12" font-weight="700" fill="#0b121f">3</text><text x="740" y="359" font-family="'Fira Code',ui-monospace,monospace" font-size="11.5" fill="#d4dbe6" font-weight="600">subtitle / attach</text><text x="740" y="375" font-size="11" fill="#8a97ab">-map 0:s / dump</text><text x="723" y="429" text-anchor="middle" font-size="12" font-weight="700" fill="#0b121f">4</text><text x="740" y="421" font-family="'Fira Code',ui-monospace,monospace" font-size="11.5" fill="#d4dbe6" font-weight="600">audio track</text><text x="740" y="437" font-size="11" fill="#8a97ab">-&gt; spectrogram</text><text x="723" y="491" text-anchor="middle" font-size="12" font-weight="700" fill="#0b121f">5</text><text x="740" y="483" font-family="'Fira Code',ui-monospace,monospace" font-size="11.5" fill="#d4dbe6" font-weight="600">moov / trailing</text><text x="740" y="499" font-size="11" fill="#8a97ab">exiftool · binwalk</text><text x="955" y="175" text-anchor="middle" font-size="15" font-weight="700" fill="#0b121f">TEXT</text><text x="893" y="243" text-anchor="middle" font-size="12" font-weight="700" fill="#0b121f">1</text><text x="910" y="235" font-family="'Fira Code',ui-monospace,monospace" font-size="11.5" fill="#d4dbe6" font-weight="600">cat -A -&gt; stegsnow</text><text x="910" y="251" font-size="11" fill="#8a97ab">whitespace</text><text x="893" y="305" text-anchor="middle" font-size="12" font-weight="700" fill="#0b121f">2</text><text x="910" y="297" font-family="'Fira Code',ui-monospace,monospace" font-size="11.5" fill="#d4dbe6" font-weight="600">zero-width</text><text x="910" y="313" font-size="11" fill="#8a97ab">U+200B / C / D</text><text x="893" y="367" text-anchor="middle" font-size="12" font-weight="700" fill="#0b121f">3</text><text x="910" y="359" font-family="'Fira Code',ui-monospace,monospace" font-size="11.5" fill="#d4dbe6" font-weight="600">homoglyphs</text><text x="910" y="375" font-size="11" fill="#8a97ab">mixed alphabets</text><text x="893" y="429" text-anchor="middle" font-size="12" font-weight="700" fill="#0b121f">4</text><text x="910" y="421" font-family="'Fira Code',ui-monospace,monospace" font-size="11.5" fill="#d4dbe6" font-weight="600">encodings</text><text x="910" y="437" font-size="11" fill="#8a97ab">CyberChef Magic</text><text x="1125" y="175" text-anchor="middle" font-size="15" font-weight="700" fill="#0b121f">ARCHIVE / DOC</text><text x="1063" y="243" text-anchor="middle" font-size="12" font-weight="700" fill="#0b121f">1</text><text x="1080" y="235" font-family="'Fira Code',ui-monospace,monospace" font-size="11.5" fill="#d4dbe6" font-weight="600">unzip / 7z</text><text x="1080" y="251" font-size="11" fill="#8a97ab">appended zip</text><text x="1063" y="305" text-anchor="middle" font-size="12" font-weight="700" fill="#0b121f">2</text><text x="1080" y="297" font-family="'Fira Code',ui-monospace,monospace" font-size="11.5" fill="#d4dbe6" font-weight="600">binwalk -e</text><text x="1080" y="313" font-size="11" fill="#8a97ab">carve embedded</text><text x="1063" y="367" text-anchor="middle" font-size="12" font-weight="700" fill="#0b121f">3</text><text x="1080" y="359" font-family="'Fira Code',ui-monospace,monospace" font-size="11.5" fill="#d4dbe6" font-weight="600">polyglot?</text><text x="1080" y="375" font-size="11" fill="#8a97ab">two magic bytes</text><text x="1063" y="429" text-anchor="middle" font-size="12" font-weight="700" fill="#0b121f">4</text><text x="1080" y="421" font-family="'Fira Code',ui-monospace,monospace" font-size="11.5" fill="#d4dbe6" font-weight="600">pdf / docx / apk</text><text x="1080" y="437" font-size="11" fill="#8a97ab">it&#x27;s a zip</text><text x="1063" y="491" text-anchor="middle" font-size="12" font-weight="700" fill="#0b121f">5</text><text x="1080" y="483" font-family="'Fira Code',ui-monospace,monospace" font-size="11.5" fill="#d4dbe6" font-weight="600">fcrackzip -u -D</text><text x="1080" y="499" font-size="11" fill="#8a97ab">crack zip</text><text x="1295" y="175" text-anchor="middle" font-size="15" font-weight="700" fill="#0b121f">UNKNOWN / RAW</text><text x="1233" y="243" text-anchor="middle" font-size="12" font-weight="700" fill="#0b121f">1</text><text x="1250" y="235" font-family="'Fira Code',ui-monospace,monospace" font-size="11.5" fill="#d4dbe6" font-weight="600">file / hexed.it</text><text x="1250" y="251" font-size="11" fill="#8a97ab">identify</text><text x="1233" y="305" text-anchor="middle" font-size="12" font-weight="700" fill="#0b121f">2</text><text x="1250" y="297" font-family="'Fira Code',ui-monospace,monospace" font-size="11.5" fill="#d4dbe6" font-weight="600">binvis.io</text><text x="1250" y="313" font-size="11" fill="#8a97ab">visualize bytes</text><text x="1233" y="367" text-anchor="middle" font-size="12" font-weight="700" fill="#0b121f">3</text><text x="1250" y="359" font-family="'Fira Code',ui-monospace,monospace" font-size="11.5" fill="#d4dbe6" font-weight="600">raw import</text><text x="1250" y="375" font-size="11" fill="#8a97ab">GIMP / Audacity</text><text x="1233" y="429" text-anchor="middle" font-size="12" font-weight="700" fill="#0b121f">4</text><text x="1250" y="421" font-family="'Fira Code',ui-monospace,monospace" font-size="11.5" fill="#d4dbe6" font-weight="600">QR / Braille</text><text x="1250" y="437" font-size="11" fill="#8a97ab">decode blob</text></svg>